<?xml version="1.0" encoding="utf-8"?>
<!-- Generator: Adobe Illustrator 25.2.3, SVG Export Plug-In . SVG Version: 6.00 Build 0)  -->
<svg version="1.1" id="Layer_1" xmlns="http://www.w3.org/2000/svg" xmlns:xlink="http://www.w3.org/1999/xlink" x="0px" y="0px"
	 viewBox="0 0 512 512" style="enable-background:new 0 0 512 512;" xml:space="preserve">
<style type="text/css">
	.st0{fill:#DC3545;}
	.st1{fill:#830202;}
	.st2{fill:#FFFFFF;enable-background:new    ;}
</style>
<path class="st0" d="M464,96h-80V48c0-26.5-21.5-48-48-48H176c-26.5,0-48,21.5-48,48v48H48c-26.5,0-48,21.5-48,48v288
	c0,26.5,21.5,48,48,48h416c26.5,0,48-21.5,48-48V144C512,117.5,490.5,96,464,96z M176,48h160v48H176V48z M368,314
	c0,8.8-7.2,16-16,16h-54v54c0,8.8-7.2,16-15.1,16h-52c-8.8,0-16-7.2-16-16v-53.1H160c-8.8,0-16-7.2-16-16v-52c0-8.8,7.2-16,16-16
	h53.1V192c0-8.8,7.2-16,16-16h52c8.8,0,15.1,7.2,15.1,16v54H352c8.8,0,16,7.2,16,16V314z"/>
<path class="st1" d="M464,97.5h-80v-56c0-22.1-17.9-40-40-40H168c-22.1,0-40,17.9-40,40v56H48c-26.5,0-48,21.5-48,48v288
	c0,26.5,21.5,48,48,48h416c26.5,0,48-21.5,48-48v-288C512,119,490.5,97.5,464,97.5z M144,41.5c0-13.2,10.8-24,24-24h176
	c13.2,0,24,10.8,24,24v56H144V41.5z M496,433.5c0,17.6-14.4,32-32,32H48c-17.6,0-32-14.4-32-32v-288c0-17.6,14.4-32,32-32h416
	c17.6,0,32,14.4,32,32V433.5z M344,248.6h-48v-48c0-8.8-7.2-16-16-16h-48c-8.8,0-16,7.2-16,16v48h-48c-8.8,0-16,7.2-16,16v48
	c0,8.8,7.2,16,16,16h48v48c0,8.8,7.2,16,16,16h48c8.8,0,16-7.2,16-16v-48h48c8.8,0,16-7.2,16-16v-48
	C360,256.6,352.8,248.6,344,248.6z M344,312.6h-64v64h-48v-64h-64v-48h64v-64h48v64h64V312.6z"/>
<path class="st2" d="M368,314c0,8.8-7.2,16-16,16h-54v54c0,8.8-7.2,16-15.1,16h-52c-8.8,0-16-7.2-16-16v-53.1H160
	c-8.8,0-16-7.2-16-16v-52c0-8.8,7.2-16,16-16h53.1V192c0-8.8,7.2-16,16-16h52c8.8,0,15.1,7.2,15.1,16v54H352c8.8,0,16,7.2,16,16V314
	z"/>
</svg>
